<svg 
 xmlns="http://www.w3.org/2000/svg"
 xmlns:xlink="http://www.w3.org/1999/xlink"
 width="15px" height="11px">
<path fill-rule="evenodd"  fill="rgb(86, 86, 86)"
 d="M13.928,9.747 C13.928,9.880 13.803,9.997 13.660,9.997 L1.339,9.997 C1.197,9.997 1.071,9.880 1.071,9.747 L1.071,3.747 C1.247,3.934 1.439,4.107 1.649,4.264 C2.846,5.123 4.051,5.996 5.214,6.904 C5.842,7.395 6.621,7.996 7.491,7.996 L7.500,7.996 L7.508,7.996 C8.379,7.996 9.157,7.395 9.785,6.904 C10.948,5.996 12.154,5.123 13.351,4.264 C13.560,4.107 13.752,3.934 13.928,3.747 L13.928,9.747 ZM13.928,1.535 C13.928,2.199 13.242,3.068 12.698,3.466 C11.576,4.286 10.454,5.114 9.341,5.942 C8.898,6.278 8.094,6.997 7.508,6.997 L7.500,6.997 L7.491,6.997 C6.905,6.997 6.102,6.278 5.658,5.942 C4.545,5.114 3.423,4.286 2.302,3.466 C1.548,2.911 1.071,2.138 1.071,1.247 C1.071,1.114 1.197,0.998 1.339,0.998 L13.660,0.998 C13.978,0.998 13.928,1.341 13.928,1.535 ZM15.000,1.247 C15.000,0.560 14.397,-0.002 13.660,-0.002 L1.339,-0.002 C0.602,-0.002 -0.000,0.560 -0.000,1.247 L-0.000,9.747 C-0.000,10.435 0.602,10.997 1.339,10.997 L13.660,10.997 C14.397,10.997 15.000,10.435 15.000,9.747 L15.000,1.247 Z"/>
</svg>