<svg xmlns="https://www.w3.org/2000/svg" width="262" height="212" viewBox="0 0 262 212">
    <path d="M251.2 182.5l-4.2-4.9v9.8z"></path>
    <path d="M61.9 182.3l-12.7 29.9h6.6l2.7-6.7H71l2.7 6.7h6.8l-12.7-29.9h-5.9zm-1.1 17.4l3.9-9.6 3.9 9.6h-7.8zM95.8 206.7c-5.1 0-8.6-4.2-8.6-9.3 0-5.2 3.6-9.3 8.6-9.3 3.4 0 5.3 1.2 7.6 3.3l3.9-4.5c-2.8-2.7-5.9-4.8-11.5-4.8-9.1 0-15.5 6.9-15.5 15.3 0 8.6 6.5 15.3 15.2 15.3 5.7 0 9.1-1.8 12.2-5l-4.2-4.4c-2.2 2-4.3 3.4-7.7 3.4zM117.2 188.6c0 16-2 18.2-5.5 18.2-.4 0-.7 0-1-.1l-.4 5.4c.8.2 2.4.4 3.4.4 6.8 0 9.6-4.4 9.6-21.9v-2.2h8.6v23.8h6.5v-29.7h-21.2v6.1zM256.2 182.5l-13 19.5v-19.5h-6.5v29.7h6.2l12.9-19.5v19.5h6.5v-29.7zM212 202v-19.5h-6.5v29.7h6.2l13-19.5v19.5h6.4v-29.7H225zM150.8 202v-19.5h-6.4v29.7h6.1l13-19.5v19.5h6.4v-29.7h-6.1zM195.5 196.7c2.1-1.2 3.9-3.1 3.9-6.4 0-2.1-.7-3.8-2-5.1-1.7-1.7-4.4-2.6-7.8-2.6h-13.8v29.7h14.1c6.7 0 11.1-2.7 11.1-8.1 0-4.2-2.1-6.2-5.5-7.5zm-13.3-8.5h6.4c2.8 0 4.3 1.1 4.3 3 0 2.3-1.8 3.2-4.7 3.2h-6v-6.2zm7.7 18.2h-7.8v-6.5h7.5c3.3 0 4.8 1.2 4.8 3.2.2 2.3-1.6 3.3-4.5 3.3zM40.7 182.5h-6.5v23.8H23.6v-23.8h-6.5v23.8H6.5v-23.8H0v29.7h46.6v-5.9h-5.9zM89.7 173.4c2.8 0 4.7-2.2 4.7-4.8 0-2.6-1.9-4.8-4.7-4.8-2.8 0-4.7 2.2-4.7 4.8 0 2.6 1.8 4.8 4.7 4.8zm0-8.6c2.1 0 3.6 1.7 3.6 3.8 0 2.1-1.5 3.8-3.6 3.8s-3.6-1.7-3.6-3.8c-.1-2.1 1.4-3.8 3.6-3.8zM57.8 165.5v7.7h1V164h-.9l-5.6 7.6V164h-1v9.2h1zM47.7 164h-1.3l-4.8 5.4V164h-1v5.4l-4.9-5.4h-1.3l3.6 3.9-3.8 5.3h1.3l3.2-4.5 1.9 2v2.5h1v-2.5l1.8-2 3.3 4.5h1.2l-3.8-5.3zM105.8 170.7c0-1.3-.9-1.9-2-2.3.7-.3 1.5-.9 1.5-2.1 0-.6-.2-1.1-.6-1.5-.5-.5-1.4-.8-2.4-.8h-3.9v9.2h4.1c1.9 0 3.3-.9 3.3-2.5zm-6.5-5.8h2.8c1.3 0 2 .6 2 1.5 0 1.1-.9 1.7-2.1 1.7h-2.7v-3.2zm0 4.1h2.9c1.6 0 2.5.6 2.5 1.6 0 1.1-.9 1.7-2.3 1.7h-3.1V169zM65.6 173.2h1.1v-8.3h3.1v-.9h-7.3v.9h3.1zM76 165.9v-1h3.9v8.3h1V164h-6v1.7c0 6.3-1.2 6.7-1.9 6.7-.3 0-.7-.1-.8-.1l-.2.8c.2.1.8.2 1.2.2 1.5 0 2.8-.9 2.8-7.4zM149.2 173.2L145 168l4-4h-1.4l-5.3 5.5V164h-1v9.2h1v-2.5l2-2 3.5 4.5zM192.4 165.9v-1h3.9v8.3h1V164h-6v1.7c0 6.3-1.2 6.7-1.9 6.7-.3 0-.7-.1-.8-.1l-.2.8c.2.1.8.2 1.2.2 1.5 0 2.8-.9 2.8-7.4zM213.4 170.7l1.9-2 3.6 4.5h1.3l-4.1-5.2 3.9-4h-1.3l-5.3 5.5V164h-1.1v9.2h1.1zM208.5 172.3h-5.7V169h5.1v-.9h-5.1v-3.2h5.6v-.9h-6.6v9.2h6.7zM227.4 173.4c1.7 0 2.7-.6 3.7-1.6l-.7-.7c-.9.8-1.7 1.3-3 1.3-2 0-3.6-1.7-3.6-3.8 0-2.2 1.5-3.8 3.6-3.8 1.3 0 2.1.5 2.9 1.3l.7-.7c-.9-.9-1.9-1.5-3.6-1.5-2.7 0-4.7 2.2-4.7 4.8.1 2.6 2 4.7 4.7 4.7zM156.4 173.4c2.8 0 4.7-2.2 4.7-4.8 0-2.6-1.9-4.8-4.7-4.8-2.8 0-4.7 2.2-4.7 4.8 0 2.6 1.9 4.8 4.7 4.8zm0-8.6c2.1 0 3.6 1.7 3.6 3.8 0 2.1-1.5 3.8-3.6 3.8s-3.6-1.7-3.6-3.8c0-2.1 1.5-3.8 3.6-3.8zM179.3 164.9h5.2v8.3h1V164h-7.3v9.2h1.1zM128 165.5v7.7h1V164h-1l-5.5 7.6V164h-1v9.2h1zM116.1 165.5v7.7h1V164h-1l-5.5 7.6V164h-1v9.2h1zM169.5 169l-3.4-5h-1v9.2h1v-7.5l3.3 5h.1l3.4-5v7.5h1V164h-1.1zM126.6 162.8v-.9h-2.4v.9z" class="st1"></path>
    <g>
        <path d="M138.2 144.2h7.4l-5.5-25.2zM122.7 63.8l21.4-20.9-34-1.1zM145.6 45.1l-20.3 19.8 26.9 6.4zM119.5 68.1l-25.8 6.8v.1l10.6 16.1zM151.6 73.9l-27.1-6.5.4 1.5 7.3 21.4zM122.2 68.8l-17 25.6 24.8-2.6zM148.1 36.6l25.3-24.7L152.6 3l-5 34.1zM148.7 2.1L125.1 0l-2.2 25.3 21.2-19zM122.5.2l-21.2 6.1 19 19.3zM144.7 38.9l5-34.1L123.8 28zM196.4 59.6l-4.7-22.1-16.8 20zM74.9 83L91 73.5 80.6 58.4zM65 53.3L72.2 83l6.1-26.6zM93.4 72.4l24.5-6.6-34.7-8.2zM190.6 34.8l-14.2-21.7-.7 9.6-2.6 32.9zM170.4 56.6l3.3-41.3-26 25.4zM99 7.6L88.6 23.3l29 3.2zM156.9 72.8l37.2 13.4L170.8 61zM90.6 26.2l16.9 12.7.2-.1 10.3-9.2.4-.4-28-3.1.2.1zM111.3 39.2l30.4 1-20-10.3zM133.1 92.9l19.9 18.6-.2-35.2zM148 44.1l6.8 27 14.4-12.2zM105.1 40.4L87.7 27.3l-6.1 26.5zM131.1 105.7l19.2 7.1.4.1-18.3-17.1zM135.9 140.4l2.2-29.3-5-1.9zM177.7 108.3l17.8-18.8-39-14.1zM197 85.5l-.2-23.3-23.5-2.2zM155.4 78.5l.2 35.5 19.8-4.4-.8-1.4zM125.9 144.2h7.7l-3.1-34.4zM91.5 76.3l-15.8 9.3 26.9 7.8zM84.6 29.3l.8-3.7-19.8 25.1 13.3 3.2zM74.6 87.9l24.3 19.3 3.2-11.3zM101.2 108.5l18.8-4-16-5.9zM129.9 94.5l-23 2.4 21.7 7.9zM123.2 105.6l2.1 23.6 2.9-21.7zM119.6 63.6l-12.3-21.5-22.9 13.1z"></path>
    </g>
</svg>