<svg version="1.1" id="Слой_1" xmlns="http://www.w3.org/2000/svg" xmlns:xlink="http://www.w3.org/1999/xlink" x="0px" y="0px"
	 viewBox="0 0 15 11" style="enable-background:new 0 0 15 11;" xml:space="preserve">
<path class="st0" d="M13.9,9.7c0,0.1-0.1,0.3-0.3,0.3H1.3c-0.1,0-0.3-0.1-0.3-0.3v-6c0.2,0.2,0.4,0.4,0.6,0.5C2.8,5.1,4.1,6,5.2,6.9
	C5.8,7.4,6.6,8,7.5,8h0h0c0.9,0,1.6-0.6,2.3-1.1c1.2-0.9,2.4-1.8,3.6-2.6c0.2-0.2,0.4-0.3,0.6-0.5V9.7z M13.9,1.5
	c0,0.7-0.7,1.5-1.2,1.9c-1.1,0.8-2.2,1.6-3.4,2.5C8.9,6.3,8.1,7,7.5,7h0h0C6.9,7,6.1,6.3,5.7,5.9C4.5,5.1,3.4,4.3,2.3,3.5
	C1.5,2.9,1.1,2.1,1.1,1.2C1.1,1.1,1.2,1,1.3,1h12.3C14,1,13.9,1.3,13.9,1.5z M15,1.2C15,0.6,14.4,0,13.7,0H1.3C0.6,0,0,0.6,0,1.2
	v8.5C0,10.4,0.6,11,1.3,11h12.3c0.7,0,1.3-0.6,1.3-1.3V1.2z"/>
</svg>
