<?xml version="1.0" encoding="utf-8"?>
<!-- Generator: Adobe Illustrator 23.0.0, SVG Export Plug-In . SVG Version: 6.00 Build 0)  -->
<svg version="1.1" id="Слой_1" xmlns="http://www.w3.org/2000/svg" xmlns:xlink="http://www.w3.org/1999/xlink" x="0px" y="0px"
	 viewBox="0 0 12 20" style="enable-background:new 0 0 12 20;" xml:space="preserve">

<path d="M7.3,18c0,0.7-0.6,1.3-1.3,1.3c-0.7,0-1.3-0.6-1.3-1.3c0-0.7,0.6-1.2,1.3-1.2C6.7,16.7,7.3,17.3,7.3,18z
	 M10.5,15.5c0,0.3-0.2,0.5-0.5,0.5H2c-0.3,0-0.5-0.2-0.5-0.5v-11C1.5,4.2,1.7,4,2,4h8c0.3,0,0.5,0.2,0.5,0.5V15.5z M7.5,2.2
	c0,0.1-0.1,0.3-0.3,0.3H4.8c-0.1,0-0.3-0.1-0.3-0.3C4.5,2.1,4.6,2,4.8,2h2.5C7.4,2,7.5,2.1,7.5,2.2z M12,2c0-1.1-0.9-2-2-2H2
	C0.9,0,0,0.9,0,2v16c0,1.1,0.9,2,2,2h8c1.1,0,2-0.9,2-2V2z"/>
</svg>
